<svg width="410" height="789" viewBox="0 0 410 789" fill="none" xmlns="http://www.w3.org/2000/svg">
<rect x="254.396" y="-62.3591" width="448.82" height="741.93" transform="rotate(20 254.396 -62.3591)" stroke="white"/>
<circle cx="91.1867" cy="642.711" r="10" transform="rotate(20 91.1867 642.711)" fill="#29CA43"/>
<circle cx="61.5525" cy="631.766" r="10" transform="rotate(20 61.5525 631.766)" fill="#FBBF2C"/>
<circle cx="31.9183" cy="620.822" r="10" transform="rotate(20 31.9183 620.822)" fill="#F76057"/>
<rect x="259.9" y="305.799" width="400" height="12" rx="3" transform="rotate(20 259.9 305.799)" fill="#B46E56"/>
<rect x="314.602" y="225.676" width="400" height="12" rx="3" transform="rotate(20 314.602 225.676)" fill="#4CA865"/>
<rect x="341.014" y="185.273" width="400" height="12" rx="3" transform="rotate(20 341.014 185.273)" fill="#619EB3"/>
<rect x="304.466" y="121.954" width="400" height="12" rx="3" transform="rotate(20 304.466 121.954)" fill="#CE723C"/>
<rect x="298.928" y="69.9221" width="400" height="12" rx="3" transform="rotate(20 298.928 69.9221)" fill="#2B7F87"/>
<rect x="361.203" y="42.0901" width="400" height="12" rx="3" transform="rotate(20 361.203 42.0901)" fill="#B68E2C"/>
<rect x="260.238" y="606.02" width="400" height="12" rx="3" transform="rotate(20 260.238 606.02)" fill="#38B286"/>
<rect x="307.323" y="573.141" width="400" height="12" rx="3" transform="rotate(20 307.323 573.141)" fill="#B66F93"/>
<rect x="251.042" y="502.64" width="400" height="12" rx="3" transform="rotate(20 251.042 502.64)" fill="#B68E2C"/>
<rect x="222.951" y="442.4" width="400" height="12" rx="3" transform="rotate(20 222.951 442.4)" fill="#24377A"/>
<rect x="202.478" y="334.915" width="400" height="12" rx="3" transform="rotate(20 202.478 334.915)" fill="#32603E"/>
<g clip-path="url(#clip0_4_98)">
<path d="M37.7915 489.791L50.8898 490.513L52.033 490.576L51.3028 489.695L42.8307 479.476L42.0631 478.55L41.9477 479.747L41.4202 485.226L37.4764 488.928L36.625 489.727L37.7915 489.791ZM49.8021 489.452L39.0131 488.857L42.2423 485.827L42.3795 485.697L42.3981 485.51L42.8283 481.039L49.8021 489.452Z" fill="white"/>
</g>
<defs>
<clipPath id="clip0_4_98">
<rect width="18" height="18" fill="white" transform="translate(55.0818 490.631) rotate(152)"/>
</clipPath>
</defs>
</svg>
