<svg width="436" height="1037" viewBox="0 0 436 1037" fill="none" xmlns="http://www.w3.org/2000/svg">
<rect x="-288.051" y="672.8" width="497.077" height="200.477" transform="rotate(-60 -288.051 672.8)" fill="#E6CDF4"/>
<path d="M116.774 323.167L117.384 323.519L115.458 326.855C115.259 327.199 115.001 327.46 114.682 327.637C114.366 327.813 114.016 327.894 113.633 327.881C113.25 327.865 112.861 327.744 112.466 327.515C112.071 327.287 111.771 327.011 111.566 326.688C111.362 326.362 111.257 326.018 111.25 325.655C111.246 325.292 111.343 324.938 111.542 324.594L113.468 321.257L114.078 321.61L112.18 324.897C112.038 325.143 111.966 325.393 111.963 325.647C111.962 325.9 112.029 326.139 112.166 326.365C112.305 326.589 112.515 326.783 112.795 326.945C113.076 327.107 113.348 327.192 113.612 327.2C113.878 327.206 114.119 327.145 114.335 327.017C114.554 326.887 114.735 326.7 114.877 326.454L116.774 323.167ZM119.213 324.575L116.304 329.613L115.694 329.261L118.603 324.222L119.213 324.575ZM124.669 329.404L121.09 332.376L120.499 332.036L121.284 327.45L121.914 327.813L121.218 331.427L121.258 331.45L124.039 329.041L124.669 329.404ZM123.254 333.626L125.436 329.847L126.016 330.182L123.834 333.961L123.254 333.626ZM126.094 329.387C125.981 329.322 125.906 329.227 125.868 329.103C125.833 328.979 125.846 328.863 125.908 328.755C125.971 328.647 126.065 328.577 126.189 328.547C126.316 328.517 126.436 328.535 126.549 328.6C126.662 328.665 126.737 328.76 126.773 328.883C126.81 329.008 126.798 329.124 126.735 329.232C126.673 329.341 126.578 329.41 126.452 329.439C126.327 329.47 126.208 329.453 126.094 329.387ZM126.437 335.568C126.073 335.358 125.805 335.096 125.634 334.783C125.465 334.469 125.393 334.126 125.418 333.753C125.446 333.38 125.571 333 125.795 332.613C126.018 332.226 126.286 331.925 126.597 331.711C126.911 331.497 127.243 331.38 127.593 331.361C127.945 331.342 128.292 331.43 128.633 331.627C128.83 331.741 129.006 331.886 129.16 332.062C129.314 332.239 129.427 332.446 129.499 332.685C129.572 332.922 129.586 333.188 129.54 333.483C129.495 333.778 129.37 334.102 129.166 334.454L129.024 334.7L126.111 333.019L126.401 332.517L128.724 333.858C128.847 333.644 128.914 333.43 128.925 333.213C128.938 332.997 128.895 332.796 128.795 332.609C128.696 332.424 128.542 332.27 128.332 332.149C128.101 332.015 127.868 331.957 127.633 331.975C127.4 331.991 127.186 332.064 126.991 332.194C126.795 332.324 126.638 332.494 126.517 332.702L126.324 333.036C126.159 333.322 126.069 333.592 126.053 333.847C126.039 334.102 126.091 334.332 126.208 334.538C126.327 334.742 126.503 334.911 126.738 335.047C126.89 335.135 127.041 335.193 127.188 335.222C127.338 335.249 127.484 335.246 127.624 335.211C127.766 335.174 127.899 335.105 128.024 335.002L128.494 335.483C128.325 335.639 128.129 335.749 127.906 335.813C127.684 335.875 127.448 335.887 127.196 335.849C126.946 335.81 126.693 335.716 126.437 335.568ZM129.786 337.397L130.817 332.954L131.427 333.306L130.573 336.671L130.613 336.693L133.09 334.266L133.71 334.624L132.843 337.968L132.882 337.99L135.363 335.579L135.974 335.931L132.64 339.045L132.07 338.716L132.919 335.335L132.86 335.301L130.357 337.727L129.786 337.397Z" fill="white"/>
<rect x="-407.271" y="751.848" width="811.641" height="471.23" transform="rotate(-60 -407.271 751.848)" stroke="white"/>
<rect x="279.245" y="224.246" width="130" height="20" rx="4" transform="rotate(30 279.245 224.246)" fill="#2CB67D"/>
<g clip-path="url(#clip0_4_114)">
<path d="M148.186 338.775L135.506 342.136L134.399 342.429L135.366 343.042L146.581 350.142L147.597 350.786L147.337 349.611L146.146 344.238L148.753 339.498L149.315 338.475L148.186 338.775ZM136.868 342.809L147.313 340.04L145.178 343.921L145.088 344.086L145.128 344.27L146.101 348.655L136.868 342.809Z" fill="white"/>
</g>
<defs>
<clipPath id="clip0_4_114">
<rect width="18" height="18" fill="white" transform="translate(131.483 343.319) rotate(-46)"/>
</clipPath>
</defs>
</svg>