<svg xmlns="http://www.w3.org/2000/svg" viewBox="0 0 400 427" style="enable-background:new 0 0 400 427" xml:space="preserve">
    <path d="M0 34 57 0h57l57 5 58 36 57-24 57 26 57-12v397H0V34z" style="fill:#1e1b1e"/>
    <path d="m0 146 57-97 57 35 57-35 58 21 57-15 57 55 57 19v299H0V146z" style="fill:#433549"/>
    <path d="m0 137 57 70 57 10 57-12 58-25 57 30 57-50 57-1v269H0V137z" style="fill:#65527c"/>
    <path d="m0 283 57-67 57 63 57-45 58 1 57 33 57-36 57-13v209H0V283z" style="fill:#8174b6"/>
    <path d="m0 350 57-9 57 15 57-6 58-20 57-12 57 5 57 25v80H0v-78z" style="fill:#939af5"/>
</svg>
